<svg xmlns="http://www.w3.org/2000/svg" width="308" height="83" fill="none" viewBox="0 0 308 83">
  <defs>
    <linearGradient id="a" x1=".850001" x2="62.62" y1="62.72" y2="1.81" gradientUnits="userSpaceOnUse">
      <stop stop-color="#FF9419"/>
      <stop offset=".43" stop-color="#FF021D"/>
      <stop offset=".99" stop-color="#E600FF"/>
    </linearGradient>
  </defs>
  <path fill="#000" fill-rule="evenodd" d="M85.9467 42.8363c.3585-.6572.5377-1.4041.5377-2.2505v-19.568h6.6322v20.0659c0 1.892-.4382 3.5849-1.3045 5.0886-.8664 1.5037-2.0614 2.6888-3.585 3.5452-1.5236.8564-3.2364 1.2846-5.1484 1.2846H78v-6.1044h4.1924c.8465 0 1.5834-.1793 2.2406-.5378.6573-.3585 1.1552-.8663 1.5137-1.5236Zm32.2843-4.0729H104.34v6.453h15.783v5.7757H97.8766V21.0178h21.8184v5.7758H104.34v6.3633h13.891v5.6065Zm12.856-11.8005h-8.882l-.01.01v-5.9551h24.367v5.9451h-8.842v24.0193h-6.633V26.9629Zm36.467 8.355c.588.1593 1.156.3684 1.673.6472l.01-.0099c1.225.6473 2.171 1.5535 2.858 2.7285.688 1.1751 1.026 2.4996 1.026 3.9833 0 1.6133-.438 3.0473-1.304 4.302-.877 1.2647-2.102 2.2406-3.675 2.9476-1.583.7071-3.376 1.0556-5.387 1.0556h-13.574V20.9979h13.315c1.912 0 3.624.3386 5.118 1.0058 1.494.6772 2.659 1.6132 3.486 2.8082.826 1.205 1.244 2.5692 1.244 4.0929 0 1.3344-.318 2.5094-.936 3.5351-.617 1.0257-1.483 1.8224-2.579 2.39-.398.1992-.826.3585-1.275.488Zm-6.044-9.2712h-5.886v7.3393h5.886c.816 0 1.533-.1494 2.161-.4581.627-.3087 1.115-.7369 1.464-1.3045.348-.5677.527-1.2548.527-1.9817 0-.727-.179-1.3643-.527-1.9021-.349-.5477-.837-.9659-1.464-1.2547-.628-.2888-1.345-.4382-2.161-.4382Zm2.649 19.4485c.687-.3087 1.225-.7469 1.603-1.3145.378-.5676.568-1.2249.568-1.9917 0-.7667-.2-1.4439-.578-2.0414-.378-.5975-.926-1.0556-1.613-1.3842-.697-.3286-1.484-.4979-2.37-.4979h-6.145v7.6878h6.145c.906 0 1.693-.1494 2.39-.4581Zm35.063-9.9881c-.917 1.4439-2.201 2.5692-3.864 3.3659h.01c-.319.1493-.657.2788-.996.3983l6.851 11.7208h-7.578l-6.084-10.9142h-4.322v10.9142h-6.642V21.0178h13.124c2.171 0 4.073.3884 5.717 1.1751 1.643.7867 2.917 1.8921 3.814 3.3261.896 1.4339 1.344 3.0472 1.344 4.9592 0 1.9119-.458 3.5849-1.374 5.0289Zm-7.598-1.3145c.687-.3286 1.214-.8166 1.583-1.444v-.0199c.368-.6274.558-1.3643.558-2.2008 0-.8364-.19-1.5734-.558-2.1908-.369-.6174-.896-1.1053-1.583-1.434-.688-.3286-1.494-.4979-2.42-.4979h-5.975v8.2952h5.975c.926 0 1.732-.1692 2.42-.5078Zm11.471 16.7995 10.706-29.9743h7.189l10.964 29.9743h-6.612l-2.27-6.6122h-11.114l-2.121 6.6122h-6.742Zm13.812-22.2068-3.445 10.5756h7.947l-3.685-10.5756-.408-1.922-.409 1.922Zm24.099 22.2068h-6.851V21.0178h6.851v29.9743Zm11.273-29.9743 12.896 20.275v-20.275h6.055v29.9743h-6.533l-12.826-20.2749v20.2749h-6.055V21.0178h6.463ZM293.974 34.8c1.165.8465 2.082 1.8921 2.729 3.1369l-.02-.01c.647 1.2548.976 2.619.976 4.1028 0 1.8124-.478 3.4356-1.444 4.8696-.966 1.434-2.3 2.5593-4.023 3.3758-1.713.8166-3.705 1.2249-5.915 1.2249-2.211 0-4.173-.3983-5.886-1.195-1.713-.7966-3.057-1.912-4.033-3.336-.986-1.434-1.484-3.0771-1.513-4.9492h6.642c0 .7667.199 1.4539.617 2.0414.408.5975.986 1.0556 1.733 1.3742.747.3187 1.613.478 2.529.478.916 0 1.713-.1394 2.39-.4282.677-.2888 1.205-.6971 1.584-1.2248.378-.5278.567-1.1353.567-1.8025 0-.8365-.249-1.5236-.767-2.0813-.517-.5576-1.215-.946-2.101-1.1551l-5.397-1.1153c-1.414-.2988-2.649-.8365-3.725-1.6033-1.065-.7668-1.892-1.7327-2.479-2.8979-.588-1.1551-.876-2.4596-.876-3.9036 0-1.7825.458-3.3659 1.364-4.76.906-1.3942 2.181-2.4796 3.804-3.2663 1.623-.7867 3.475-1.1751 5.566-1.1751 2.092 0 3.964.3784 5.597 1.1352 1.633.7569 2.918 1.8025 3.834 3.1468.916 1.3344 1.404 2.878 1.444 4.6207h-6.642c0-.6473-.179-1.2149-.528-1.7228-.349-.5079-.837-.8963-1.464-1.1751-.627-.2788-1.364-.4182-2.181-.4182-.816 0-1.533.1294-2.151.3983-.617.2689-1.105.6373-1.444 1.1153-.348.478-.518 1.0357-.518 1.683 0 .707.239 1.3045.708 1.7825.468.478 1.105.8066 1.902.9958l5.098 1.0456c1.514.2888 2.858.8465 4.023 1.6929ZM84.61 69.97c-.86 0-1.64.22-2.34.65v-.02c-.7.43-1.25 1.02-1.64 1.78-.39.76-.59 1.61-.59 2.56s.2 1.8.59 2.56c.4.76.94 1.35 1.64 1.78.7.43 1.48.65 2.34.65.64 0 1.23-.11 1.77-.32.54-.21 1.01-.52 1.4-.92.39-.4.69-.87.88-1.4h2.62c-.23.96-.66 1.82-1.28 2.56-.63.74-1.41 1.32-2.34 1.73-.93.41-1.96.62-3.07.62-1.34 0-2.54-.32-3.62-.95-1.08-.63-1.92-1.5-2.54-2.6-.62-1.11-.93-2.34-.93-3.7 0-1.36.31-2.6.93-3.7.61-1.1 1.46-1.97 2.54-2.6 1.08-.63 2.29-.95 3.62-.95 1.11 0 2.14.21 3.07.62.94.41 1.71.98 2.34 1.73.63.75 1.05 1.6 1.28 2.56h-2.62c-.2-.53-.49-1-.88-1.4-.39-.4-.86-.71-1.4-.92-.55-.21-1.14-.32-1.77-.32Zm13.34 1.5c1 0 1.9.23 2.69.68v-.01c.79.46 1.4 1.09 1.84 1.9.44.81.66 1.74.66 2.78v.57h-8.07c.04.47.14.91.34 1.3.25.49.6.88 1.04 1.15.45.27.95.41 1.51.41.49 0 .94-.1 1.33-.29.39-.19.72-.46.98-.81h2.57c-.24.63-.59 1.18-1.05 1.63-.46.45-1.02.8-1.67 1.05-.65.25-1.38.37-2.17.37-1.01 0-1.92-.23-2.72-.69-.8-.46-1.43-1.1-1.9-1.92-.47-.82-.7-1.77-.7-2.77s.23-1.91.7-2.73c.47-.82 1.11-1.46 1.92-1.92.81-.47 1.7-.7 2.7-.7Zm-2.55 3.4c-.15.3-.24.62-.3.95h5.61c-.06-.32-.14-.62-.27-.89-.24-.5-.57-.89-1-1.17-.43-.28-.93-.42-1.49-.42-.56 0-1.07.14-1.51.41-.44.27-.79.64-1.04 1.12Zm11.95-1.6c.27-.44.59-.79.98-1.06l.01.01c.55-.38 1.18-.57 1.91-.57h.38v2.38h-.66c-.53 0-.99.1-1.38.29-.39.19-.69.47-.9.83-.21.36-.32.79-.32 1.28v5.54h-2.36V71.72h2.34v1.55Zm4.8-4.12h2.37v2.56h2.71v2.05h-2.71v5.33c0 .25.07.45.22.6.15.15.35.22.61.22h1.88v2.05h-2.36c-.56 0-1.04-.1-1.45-.31-.41-.21-.72-.5-.94-.89-.22-.39-.33-.84-.33-1.37V69.15Zm9.15 12.82h-2.36V71.71h2.36v10.26Zm.16-11.34h-2.69v-2.34h2.69v2.34Zm12.26 11.34h-2.36V71.71h2.36v10.26Zm-8.73-12.78c.24-.39.58-.69 1.01-.91h-.01c.43-.22.93-.33 1.49-.33h6.28v1.89h-5.84c-.27 0-.5.09-.67.26-.17.17-.26.4-.26.67v.95h2.66v2.05h-2.66v8.2h-2.36v-8.2h-1.81v-2.05h1.81v-1.17c0-.52.12-.97.36-1.36Zm15.89 2.28c1 0 1.9.23 2.69.68v-.01c.79.46 1.4 1.09 1.84 1.9.44.81.66 1.74.66 2.78v.57H138c.04.47.14.91.34 1.3.25.49.6.88 1.04 1.15.45.27.95.41 1.51.41.49 0 .94-.1 1.33-.29.39-.19.72-.46.98-.81h2.57c-.24.63-.59 1.18-1.05 1.63-.46.45-1.02.8-1.67 1.05-.65.25-1.38.37-2.17.37-1.01 0-1.92-.23-2.72-.69-.8-.46-1.43-1.1-1.9-1.92-.47-.82-.7-1.77-.7-2.77s.23-1.91.7-2.73c.47-.82 1.11-1.46 1.92-1.92.81-.47 1.7-.7 2.7-.7Zm-2.56 3.4c-.15.3-.24.62-.3.95h5.61c-.06-.32-.14-.62-.27-.89-.24-.5-.57-.89-1-1.17-.43-.28-.93-.42-1.49-.42-.56 0-1.07.14-1.51.41-.44.27-.79.64-1.04 1.12Zm17.25-1.6351c-.328-.4931-.745-.8979-1.26-1.1949-.64-.37-1.38-.56-2.23-.56-.91 0-1.73.23-2.45.69-.72.46-1.28 1.09-1.69 1.91-.41.82-.61 1.74-.61 2.77s.2 1.95.61 2.77c.41.82.97 1.46 1.69 1.91.72.46 1.53.69 2.44.69.85 0 1.59-.19 2.23-.56.52-.3.93-.71 1.27-1.21v1.53h2.36V67.95h-2.36v5.2849Zm-1.39 6.4551c.44-.28.78-.66 1.03-1.15v.01c.25-.49.37-1.06.37-1.7 0-.64-.12-1.21-.37-1.7s-.59-.87-1.03-1.15c-.44-.28-.96-.42-1.52-.42s-1.06.14-1.5.42c-.44.28-.79.66-1.03 1.15-.25.49-.37 1.06-.37 1.7 0 .64.13 1.21.37 1.7.25.49.59.88 1.03 1.15.44.27.93.41 1.5.41s1.08-.14 1.52-.42Zm18.43-5.82c.68.15 1.29.42 1.82.81v-.01c.54.39.95.86 1.25 1.42.3.56.45 1.17.45 1.84 0 .8-.22 1.53-.65 2.18-.43.65-1.03 1.16-1.81 1.53-.78.37-1.66.56-2.66.56-1 0-1.89-.19-2.66-.55-.78-.37-1.38-.88-1.82-1.53-.44-.65-.67-1.41-.67-2.26h2.5c0 .44.11.82.34 1.15.23.33.55.59.95.78.41.19.89.28 1.4.28.51 0 .96-.09 1.34-.26.38-.17.67-.4.89-.71.22-.31.32-.66.32-1.05 0-.49-.15-.89-.44-1.21-.29-.32-.7-.54-1.21-.67l-2.44-.55c-.66-.15-1.24-.41-1.73-.76-.49-.35-.88-.79-1.15-1.31-.27-.52-.41-1.1-.41-1.75 0-.79.2-1.49.61-2.11.41-.62.97-1.11 1.7-1.46.72-.35 1.53-.53 2.47-.53.94 0 1.78.18 2.51.52.73.34 1.3.82 1.71 1.43.41.61.62 1.31.62 2.1h-2.5c0-.37-.1-.7-.29-.99-.19-.29-.46-.52-.81-.68-.35-.16-.77-.24-1.22-.24-.45 0-.85.08-1.2.23-.35.15-.62.37-.81.65-.19.28-.29.61-.29.98 0 .42.14.77.41 1.04.27.27.65.47 1.12.6l2.36.53Zm10.29-2.4c1 0 1.9.23 2.69.68v-.01c.79.46 1.4 1.09 1.84 1.9.44.81.66 1.74.66 2.78v.57h-8.07c.04.47.14.91.34 1.3.25.49.6.88 1.04 1.15.45.27.95.41 1.51.41.49 0 .94-.1 1.33-.29.39-.19.72-.46.98-.81h2.57c-.24.63-.59 1.18-1.05 1.63-.46.45-1.02.8-1.67 1.05-.65.25-1.38.37-2.17.37-1.01 0-1.92-.23-2.72-.69-.8-.46-1.43-1.1-1.9-1.92-.47-.82-.7-1.77-.7-2.77s.23-1.91.7-2.73c.47-.82 1.11-1.46 1.92-1.92.81-.47 1.7-.7 2.7-.7Zm-2.56 3.4c-.15.3-.24.62-.3.95h5.61c-.06-.32-.14-.62-.27-.89-.24-.5-.57-.89-1-1.17-.43-.28-.93-.42-1.49-.42-.56 0-1.07.14-1.51.41-.44.27-.79.64-1.04 1.12Zm11.95-1.6c.27-.44.59-.79.98-1.06l.01.01c.55-.38 1.18-.57 1.91-.57h.38v2.38h-.66c-.53 0-.99.1-1.38.29-.39.19-.69.47-.9.83-.21.36-.32.79-.32 1.28v5.54h-2.36V71.72h2.34v1.55Zm6.71-1.56 2.67 7.26 2.57-7.26h2.44l-3.91 10.25h-2.33l-3.95-10.25H199Zm11.33 10.26h-2.36V71.71h2.36v10.26Zm.16-11.34h-2.69v-2.34h2.69v2.34Zm7.01 2.94c-.55 0-1.04.14-1.48.42-.44.28-.78.67-1.03 1.17-.25.5-.37 1.07-.37 1.69 0 .62.12 1.18.37 1.68s.59.89 1.03 1.17c.44.29.93.43 1.48.43.37 0 .72-.07 1.05-.21.33-.14.62-.34.86-.59.25-.25.44-.55.58-.9h2.51c-.18.75-.51 1.41-.98 1.98-.47.57-1.06 1.01-1.75 1.33-.69.32-1.45.48-2.28.48-1 0-1.91-.23-2.72-.7-.81-.47-1.45-1.11-1.91-1.93-.47-.82-.7-1.73-.7-2.74 0-1.01.24-1.92.7-2.74.46-.82 1.1-1.46 1.91-1.93.81-.47 1.72-.7 2.72-.7.82 0 1.59.16 2.28.48.7.32 1.28.76 1.75 1.33.47.57.8 1.23.98 1.98h-2.51c-.14-.35-.34-.65-.58-.9-.25-.25-.53-.45-.86-.59-.33-.14-.68-.21-1.05-.21Zm11.47-2.1c1 0 1.9.23 2.69.68v-.01c.79.46 1.4 1.09 1.84 1.9.44.81.66 1.74.66 2.78v.57h-8.07c.04.47.14.91.34 1.3.25.49.6.88 1.04 1.15.45.27.95.41 1.51.41.49 0 .94-.1 1.33-.29.39-.19.72-.46.98-.81h2.57c-.24.63-.59 1.18-1.05 1.63-.46.45-1.02.8-1.67 1.05-.65.25-1.38.37-2.17.37-1.01 0-1.92-.23-2.72-.69-.8-.46-1.43-1.1-1.9-1.92-.47-.82-.7-1.77-.7-2.77s.23-1.91.7-2.73c.47-.82 1.11-1.46 1.92-1.92.81-.47 1.7-.7 2.7-.7Zm-2.55 3.4c-.15.3-.24.62-.3.95h5.61c-.06-.32-.14-.62-.27-.89-.24-.5-.57-.89-1-1.17-.43-.28-.93-.42-1.49-.42-.56 0-1.07.14-1.51.41-.44.27-.79.64-1.04 1.12Zm21.59-6.92c.96 0 1.8.18 2.53.53h-.01c.73.35 1.29.85 1.69 1.5.4.65.6 1.38.6 2.24 0 .86-.21 1.61-.61 2.26-.4.65-.97 1.16-1.71 1.52-.74.36-1.6.54-2.58.54h-3.37v5.43h-2.49V67.95h5.95Zm1.12 6.22c.36-.18.63-.44.83-.77v.01c.2-.33.3-.73.3-1.17 0-.44-.1-.82-.3-1.15-.2-.33-.47-.58-.83-.76-.36-.18-.78-.27-1.27-.27h-3.3v4.38h3.3c.49 0 .91-.09 1.27-.27Zm9.22-2.7c.83 0 1.56.15 2.18.44l.01.02c.62.29 1.11.72 1.45 1.28.35.56.52 1.22.52 1.97v6.8h-2.33v-1.49c-.28.52-.64.95-1.12 1.24-.53.33-1.17.49-1.91.49-.66 0-1.25-.12-1.77-.38s-.93-.61-1.23-1.06c-.3-.45-.45-.97-.45-1.53s.14-1.07.43-1.54.68-.86 1.19-1.16c.51-.31 1.08-.49 1.72-.56l2.53-.29c.18-.02.32-.1.43-.23.07-.09.11-.21.14-.34v-.2c0-.32-.07-.59-.22-.82-.15-.23-.36-.41-.63-.53-.27-.13-.6-.19-.97-.19s-.69.06-.97.17c-.28.12-.51.27-.67.46-.17.19-.27.41-.3.65h-2.33c.08-.61.3-1.16.67-1.64.37-.48.86-.86 1.49-1.14.63-.28 1.31-.42 2.14-.42Zm1.51 7.84c.19-.34.28-.73.28-1.18v-.98l-2.53.3c-.29.03-.55.12-.78.26-.23.14-.4.32-.53.54-.13.22-.19.46-.19.73 0 .27.07.52.22.73.15.21.35.38.62.49.27.11.57.17.92.17.45 0 .84-.1 1.19-.28.35-.18.61-.44.8-.78Zm7.35-6.04c.27-.44.59-.79.98-1.06l.01.01c.55-.38 1.18-.57 1.91-.57h.38v2.38h-.66c-.53 0-.99.1-1.38.29-.39.19-.69.47-.9.83-.21.36-.32.79-.32 1.28v5.54h-2.36V71.72h2.34v1.55Zm4.8-4.12h2.37v2.56h2.71v2.05h-2.71v5.33c0 .25.07.45.22.6.15.15.35.22.61.22h1.88v2.05h-2.36c-.56 0-1.04-.1-1.45-.31-.41-.21-.72-.5-.94-.89-.22-.39-.33-.84-.33-1.37V69.15Zm12.34 2.32c.73 0 1.38.16 1.93.48.55.32.98.78 1.29 1.39.31.61.46 1.33.46 2.17v6.45h-2.35v-6.09c0-.49-.08-.91-.25-1.26-.17-.35-.41-.62-.72-.8-.31-.19-.69-.28-1.12-.28-.47 0-.88.11-1.24.32-.36.21-.64.5-.84.88-.2.38-.3.81-.3 1.29v5.94h-2.36V71.71h2.29v1.5c.3-.49.68-.89 1.15-1.19.59-.37 1.27-.55 2.06-.55Zm10.77 0c1 0 1.9.23 2.69.68v-.01c.79.46 1.4 1.09 1.84 1.9.44.81.66 1.74.66 2.78v.57h-8.07c.04.47.14.91.34 1.3.25.49.6.88 1.04 1.15.45.27.95.41 1.51.41.49 0 .94-.1 1.33-.29.39-.19.72-.46.98-.81h2.57c-.24.63-.59 1.18-1.05 1.63-.46.45-1.02.8-1.67 1.05-.65.25-1.38.37-2.17.37-1.01 0-1.92-.23-2.72-.69-.8-.46-1.43-1.1-1.9-1.92-.47-.82-.7-1.77-.7-2.77s.23-1.91.7-2.73c.47-.82 1.11-1.46 1.92-1.92.81-.47 1.7-.7 2.7-.7Zm-2.55 3.4c-.15.3-.24.62-.3.95h5.61c-.06-.32-.14-.62-.27-.89-.24-.5-.57-.89-1-1.17-.43-.28-.93-.42-1.49-.42-.56 0-1.07.14-1.51.41-.44.27-.79.64-1.04 1.12Zm12.93-2.66c.55-.38 1.18-.57 1.91-.57l.01.01h.38v2.38h-.66c-.53 0-.99.1-1.38.29-.39.19-.69.47-.9.83-.21.36-.32.79-.32 1.28v5.54h-2.36V71.72h2.34v1.55c.27-.44.59-.79.98-1.06Z" clip-rule="evenodd"/>
  <path fill="url(#a)" d="M20.34 3.66 3.66 20.34C1.32 22.68 0 25.86 0 29.18V59c0 2.76 2.24 5 5 5h29.82c3.32 0 6.49-1.32 8.84-3.66l16.68-16.68c2.34-2.34 3.66-5.52 3.66-8.84V5c0-2.76-2.24-5-5-5H29.18c-3.32 0-6.49 1.32-8.84 3.66Z"/>
  <path fill="#000" d="M48 16H8v40h40V16Z"/>
  <path fill="#fff" d="M30 47H13v4h17v-4Z"/>
</svg>
